<svg width="115" height="94" viewBox="0 0 115 94" fill="none" xmlns="http://www.w3.org/2000/svg">
<path fill-rule="evenodd" clip-rule="evenodd" d="M34.2741 0.094481C34.1816 0.187037 33.5219 0.326429 32.8076 0.404488C32.0933 0.482548 30.9411 0.705575 30.248 0.900723C29.5549 1.09476 28.7047 1.29994 28.3581 1.35793C28.0116 1.4148 27.4299 1.59545 27.0655 1.75826C26.7011 1.92219 26.2587 2.056 26.0805 2.056C25.9022 2.056 25.6982 2.15079 25.6269 2.26677C25.5556 2.38274 25.2748 2.47641 25.004 2.47641C24.5861 2.47641 23.5599 2.90128 21.9017 3.75993C21.7012 3.86364 21.3936 3.94839 21.2187 3.94839C21.0437 3.94839 20.9011 4.03648 20.9011 4.14465C20.9011 4.2517 20.6883 4.40671 20.4286 4.48812C20.1679 4.56952 19.9082 4.6933 19.8503 4.76467C19.7935 4.83603 19.5561 4.9955 19.3254 5.12039C18.0651 5.79728 17.4233 6.16862 17.3297 6.27567C17.2729 6.34147 16.6578 6.80983 15.9646 7.3161C15.2715 7.82237 14.6018 8.33533 14.4759 8.45688C14.3511 8.57843 13.8385 9.00887 13.3382 9.41367C11.2856 11.0708 8.48978 14.2132 6.60323 16.981C6.09176 17.7326 5.62263 18.395 5.56246 18.4529C5.43431 18.5734 2.87471 23.8145 2.63513 24.4435C2.5471 24.6743 2.31978 25.2218 2.13035 25.659C1.94091 26.0961 1.78602 26.6827 1.78602 26.9603C1.78602 27.2391 1.70245 27.5179 1.59993 27.5814C1.4963 27.645 1.36258 28.0063 1.30018 28.3821C1.12857 29.4337 0.736332 31.0885 0.465552 31.9059C0.00979462 33.2787 -0.199698 78.8866 0.249373 78.8866C0.386435 78.8866 2.27632 77.1425 4.45037 75.0115C6.62441 72.8793 9.27761 70.28 10.3451 69.2351L12.2885 67.3338L12.9716 67.7029C13.3471 67.9058 14.0603 68.4478 14.5561 68.9072C15.052 69.3667 15.5479 69.7425 15.6593 69.7425C15.7696 69.7425 15.8599 69.8373 15.8599 69.9521C15.8599 70.0681 15.9791 70.1629 16.124 70.1629C16.27 70.1629 16.6444 70.3993 16.9553 70.6881C17.2673 70.9769 17.5659 71.2133 17.6194 71.2133C17.6729 71.2133 18.4574 71.665 19.3611 72.217C20.2659 72.769 21.2421 73.3254 21.5307 73.4536C21.8204 73.5819 22.5614 73.9343 23.1788 74.2365C23.7961 74.5398 24.4301 74.7873 24.5895 74.7873C24.7477 74.7873 25.2358 74.9423 25.6726 75.1319C27.2605 75.82 27.0845 75.7675 29.5126 76.2772C30.1488 76.411 30.8575 76.5983 31.0882 76.6953C31.32 76.7912 32.0287 76.9161 32.6639 76.9719C33.299 77.0265 34.8112 77.1704 36.0247 77.2897C37.2382 77.409 39.586 77.4481 41.2419 77.3767L44.2539 77.2473L44.7086 77.7714C44.9582 78.0603 45.6346 78.8442 46.2118 79.5133C48.1875 81.8027 53.125 85.8974 54.6929 86.5476C55.0539 86.697 55.3492 86.9033 55.3492 87.0048C55.3492 87.1062 55.493 87.1888 55.669 87.1888C55.844 87.1888 56.341 87.4096 56.7711 87.6772C57.2023 87.9459 58.0035 88.3485 58.5518 88.5715C59.1 88.7934 59.5491 89.0466 59.5491 89.1336C59.5502 89.2205 59.694 89.2908 59.8678 89.2908C60.1887 89.2908 60.3403 89.3521 61.615 89.9911C62.0006 90.184 62.5377 90.3424 62.8107 90.3424C63.0837 90.3424 63.359 90.4271 63.4225 90.5308C63.486 90.6334 63.8938 90.7695 64.3273 90.833C65.1697 90.9546 67.2201 91.4486 67.7427 91.656C70.0103 92.5526 82.7727 92.0351 84.7695 90.9657C84.9779 90.8542 85.4203 90.7628 85.7513 90.7628C86.0822 90.7628 86.4421 90.6869 86.5524 90.5955C86.6616 90.5029 87.2723 90.2587 87.9075 90.0513C89.1343 89.6521 89.4162 89.545 90.7434 88.9696C93.7387 87.6705 98.9459 84.4912 99.2145 83.7965C99.2535 83.6973 99.3649 83.6159 99.463 83.6159C99.5599 83.6159 99.9911 83.2847 100.42 82.8799C100.848 82.4751 101.295 82.1439 101.411 82.1439C101.698 82.1439 103.924 84.2247 112.87 92.8548L114.058 94L114.112 72.8202C114.147 58.9324 114.093 51.5044 113.955 51.2457C113.839 51.0294 113.743 50.2611 113.743 49.5384C113.743 48.817 113.656 47.936 113.549 47.5803C113.443 47.2257 113.25 46.415 113.121 45.7793C112.407 42.2533 111.669 39.8881 110.635 37.8039C110.381 37.2909 110.173 36.7925 110.173 36.6966C110.173 36.6007 109.936 36.1468 109.648 35.6896C109.359 35.2313 109.122 34.7127 109.122 34.5377C109.122 34.3615 109.051 34.2176 108.963 34.2176C108.802 34.2176 108.422 33.5954 108.161 32.904C108.086 32.7021 107.94 32.536 107.837 32.536C107.736 32.536 107.652 32.3944 107.652 32.2204C107.652 32.0476 107.573 31.9059 107.476 31.9059C107.379 31.9059 107.202 31.6929 107.082 31.432C106.848 30.9235 104.919 28.4825 104.659 28.3676C104.572 28.3286 104.501 28.2204 104.501 28.1279C104.501 27.8446 100.894 24.2963 99.58 23.2871C97.2845 21.524 95.9974 20.6185 94.8385 19.9528C93.4468 19.1521 90.6832 17.8218 90.4125 17.8218C90.3055 17.8218 90.2174 17.727 90.2174 17.6121C90.2174 17.4962 90.028 17.4014 89.7951 17.4014C89.5622 17.4014 89.2079 17.3155 89.0073 17.2096C88.5716 16.981 87.1152 16.5015 85.807 16.1547C85.2866 16.0175 84.3884 15.7722 83.8112 15.6094C83.234 15.4477 82.3827 15.2614 81.9213 15.1968C81.4589 15.1321 80.3713 14.9793 79.5055 14.8555C78.565 14.7228 76.2483 14.6793 73.7589 14.7485L69.5891 14.8644L68.8236 14.008C67.3961 12.4111 65.0917 10.1374 64.0521 9.30104C63.4827 8.84272 62.8976 8.3554 62.7517 8.21824C62.3148 7.80564 59.2883 5.72591 58.5005 5.29547C58.096 5.07468 57.7172 4.84719 57.6603 4.7892C57.4787 4.60743 53.222 2.60465 52.3038 2.269C52.072 2.18425 51.3165 1.94895 50.6234 1.74599C49.9303 1.54304 49.1269 1.29325 48.8382 1.19066C48.124 0.93864 46.4926 0.591831 44.8467 0.342041C43.0895 0.0744087 34.4958 -0.126316 34.2741 0.094481ZM43.6578 5.52519C44.323 5.69803 45.1409 5.83966 45.4752 5.83966C45.8084 5.83966 46.1405 5.93444 46.2118 6.05042C46.2831 6.16639 46.5528 6.26006 46.8102 6.26006C47.3038 6.26006 49.3709 6.9336 49.6082 7.17224C49.6851 7.24919 50.0105 7.31164 50.3303 7.31164C50.6512 7.31164 50.9677 7.39862 51.0334 7.50567C51.0992 7.61272 51.4357 7.76215 51.7812 7.83798C52.1266 7.91381 52.4085 8.06212 52.4085 8.16918C52.4085 8.27511 52.5356 8.36209 52.6916 8.36209C53.1741 8.36209 58.0592 11.1756 58.5005 11.7064C58.5574 11.7766 58.9618 12.0989 59.3975 12.4245C60.4316 13.1962 63.9551 16.72 64.724 17.7515C65.0538 18.1954 65.3848 18.6046 65.4595 18.6626C66.1336 19.1867 69.8432 26.0203 69.8432 26.7384C69.8432 26.9079 69.9379 27.1042 70.0527 27.1755C70.1686 27.2469 70.2633 27.5179 70.2633 27.7766C70.2633 28.0364 70.348 28.3375 70.4505 28.4479C70.6277 28.6353 70.9018 29.6456 71.3052 31.5904C71.401 32.0531 71.5971 32.9988 71.7409 33.6924C72.0696 35.2781 72.0718 42.3046 71.7442 43.887C70.9219 47.8613 70.3391 49.8529 69.5089 51.5245C69.3462 51.8512 69.2125 52.2538 69.2125 52.4177C69.2125 52.5817 69.1178 52.7155 69.003 52.7155C68.8871 52.7155 68.7924 52.8437 68.7924 52.9998C68.7924 53.389 67.3382 56.0876 66.907 56.4991C66.8457 56.5571 66.6696 56.8515 66.5136 57.1537C66.3587 57.4559 66.0044 57.9488 65.7269 58.2488C65.4494 58.5476 65.2221 58.8989 65.2221 59.0283C65.2221 59.3806 59.1691 65.3277 58.8103 65.3277C58.6398 65.3277 58.5005 65.4024 58.5005 65.4938C58.5005 65.7012 55.8919 67.4297 55.5788 67.4297C55.4528 67.4297 55.3492 67.5077 55.3492 67.6036C55.3492 67.6984 54.7586 68.0419 54.0365 68.3664C53.3145 68.6898 52.2336 69.1793 51.6341 69.4537C51.0346 69.728 50.3548 69.9521 50.1231 69.9521C49.8924 69.9521 49.6461 70.0436 49.5781 70.1551C49.3653 70.4996 47.5724 70.9758 44.0065 71.6337C41.2597 72.1411 36.1405 72.1947 34.2395 71.7352C33.5464 71.568 32.6304 71.4286 32.2037 71.4274C31.7769 71.4252 31.3701 71.3293 31.2988 71.2133C31.2275 71.0985 30.8843 71.0037 30.5377 71.0037C29.8547 71.0037 27.8511 70.4238 27.528 70.1328C27.4188 70.0335 27.1669 69.9521 26.9697 69.9521C26.6209 69.9521 25.1188 69.2741 23.6312 68.4445C23.2278 68.2181 22.7308 67.9817 22.5291 67.9181C22.3263 67.8534 22.1614 67.7174 22.1614 67.6159C22.1614 67.5133 22.06 67.4297 21.9374 67.4297C21.8137 67.4297 21.4036 67.1933 21.0248 66.9045C20.6459 66.6156 20.2492 66.3792 20.1434 66.3792C20.0375 66.3792 19.7166 66.1651 19.428 65.9031C19.1405 65.641 18.4329 65.0779 17.8556 64.6508C17.2773 64.2248 15.8677 62.9257 14.7211 61.7648C12.2216 59.2312 12.6284 59.2635 10.422 61.4247C9.42692 62.3993 8.37612 63.3985 8.08751 63.6449C7.7989 63.8925 7.11582 64.5203 6.5698 65.0422C6.02379 65.563 5.48 65.9298 5.36188 65.8562C4.58297 65.3745 5.1925 32.8237 6.01042 31.2257C6.11293 31.025 6.19762 30.6213 6.19762 30.3291C6.19762 30.037 6.28343 29.6333 6.38929 29.4326C6.49403 29.2318 6.73806 28.5951 6.92973 28.0163C7.65961 25.8273 9.24863 22.5845 10.3462 21.0468C10.6059 20.6821 10.8187 20.313 10.8187 20.226C10.8187 19.3038 16.2209 13.6768 19.1449 11.5536C19.9695 10.9548 20.7495 10.4641 20.8777 10.4641C21.0058 10.4641 21.1106 10.3916 21.1106 10.3024C21.1106 10.2132 21.4649 9.95339 21.8984 9.7259C22.3319 9.49842 22.7341 9.2542 22.791 9.18395C22.8489 9.1137 23.2278 8.91074 23.6312 8.73455C24.0357 8.55724 24.9126 8.16471 25.5801 7.86251C26.2476 7.55919 26.9753 7.31164 27.1959 7.31164C27.4165 7.31164 27.6561 7.21685 27.7274 7.10088C27.7987 6.98602 28.0695 6.89123 28.328 6.89123C28.5866 6.89123 28.893 6.79756 29.0067 6.6827C29.2106 6.47974 30.2202 6.22215 32.3485 5.83185C32.9268 5.72703 33.7303 5.55307 34.1337 5.44601C35.4096 5.11036 42.2849 5.16723 43.6578 5.52519ZM28.883 20.1167C28.7091 20.2149 28.2367 20.3665 27.8322 20.4513C26.5295 20.7278 24.4714 22.6503 24.4714 23.5926C24.4714 23.7576 24.3778 23.9517 24.2619 24.0231C23.9644 24.207 24.0067 26.6091 24.3243 27.5212C25.3851 30.5667 29.5293 32.0855 32.2337 30.4206C33.338 29.7403 34.5538 28.3888 34.5538 27.8413C34.5538 27.6629 34.6485 27.4577 34.7644 27.3863C35.0218 27.2268 35.0463 24.197 34.7911 24.0398C34.6908 23.9773 34.5538 23.6528 34.4869 23.3183C34.2518 22.1441 32.6594 20.8806 30.6291 20.2584C29.3866 19.877 29.3131 19.8714 28.883 20.1167ZM80.1351 20.3821C80.6555 20.4925 81.5057 20.6643 82.0261 20.7657C84.0163 21.1516 85.5863 21.6043 86.4867 22.0537C86.6873 22.1541 86.9681 22.2366 87.1096 22.2366C87.4094 22.2366 91.7418 24.3331 91.8978 24.5539C91.9558 24.6353 92.2154 24.768 92.4762 24.8494C92.7358 24.9308 92.9486 25.0858 92.9486 25.1928C92.9486 25.301 93.0489 25.3891 93.1726 25.3891C93.2963 25.3891 93.7443 25.6489 94.1699 25.9667C94.5956 26.2857 95.038 26.6102 95.1539 26.6893C96.3295 27.4978 99.7683 30.8577 101.035 32.4356C101.498 33.011 101.931 33.5296 101.999 33.5876C102.705 34.1897 106.392 40.9664 106.392 41.6611C106.392 41.8306 106.487 42.0291 106.601 42.1005C106.717 42.1719 106.812 42.4551 106.812 42.7306C106.812 43.006 106.898 43.2848 107.004 43.3506C107.109 43.4152 107.259 43.8468 107.337 44.3074C107.415 44.769 107.565 45.1995 107.67 45.2653C107.776 45.3299 107.862 45.7147 107.862 46.1206C107.862 46.5265 107.962 47.0439 108.083 47.2714C108.772 48.5594 109.249 80.3853 108.583 80.6072C108.321 80.6953 106.695 79.3114 103.811 76.547C101.302 74.1428 101.562 74.1406 99.083 76.5983C97.0237 78.6401 94.1956 81.0377 93.5916 81.254C93.4111 81.3187 92.9798 81.5696 92.6344 81.8105C91.8288 82.3725 90.6754 83.0103 88.9572 83.8434C88.2061 84.2069 87.4283 84.5894 87.2277 84.6909C87.0271 84.7935 86.6917 84.8771 86.4822 84.8771C86.2727 84.8771 86.0109 84.9663 85.9017 85.0756C85.6465 85.3276 84.0887 85.7335 82.8663 85.8662C82.3459 85.9231 81.8311 86.0547 81.7207 86.1584C81.6115 86.2632 81.1859 86.3502 80.7758 86.3524C80.3657 86.3546 79.2737 86.494 78.3499 86.6602C76.1703 87.0549 72.0005 87.0538 70.368 86.6591C69.6749 86.4918 68.759 86.3535 68.3322 86.3513C67.9065 86.3502 67.4987 86.2543 67.4273 86.1383C67.356 86.0223 67.0607 85.9275 66.7721 85.9275C66.1715 85.9275 64.1668 85.3265 63.8671 85.0566C63.7568 84.9585 63.496 84.8771 63.2865 84.8771C63.077 84.8771 62.7416 84.7946 62.541 84.6931C62.3405 84.5916 61.3253 84.0976 60.2857 83.5947C59.246 83.0917 58.3635 82.6078 58.3256 82.5175C58.2866 82.4283 58.1217 82.3546 57.9578 82.3546C57.794 82.3546 57.6603 82.2811 57.6603 82.1918C57.6603 82.1026 57.306 81.8439 56.8725 81.6164C56.439 81.3889 56.0368 81.1536 55.9799 81.0945C55.922 81.0354 55.1687 80.4199 54.3062 79.7263C50.6423 76.7812 50.0127 75.8768 51.3009 75.4107C51.6207 75.2936 52.0965 75.1063 52.3562 74.9936C52.6158 74.8799 53.0883 74.6836 53.4058 74.5576C53.7245 74.4316 54.2516 74.1952 54.5781 74.0324C54.9057 73.8696 55.308 73.7358 55.4718 73.7358C55.6356 73.7358 55.7693 73.6421 55.7693 73.5261C55.7693 73.4101 55.9588 73.3154 56.1894 73.3154C56.4201 73.3154 56.6095 73.2273 56.6095 73.1202C56.6095 73.012 56.8223 72.857 57.082 72.7756C57.3427 72.6954 57.6024 72.5704 57.6603 72.4991C57.7651 72.3697 58.3757 72.0162 59.9146 71.1944L60.7448 70.7505L62.1956 71.7453C62.9935 72.2917 64.1657 72.9708 64.802 73.254C65.4372 73.5362 66.2406 73.8963 66.5871 74.0525C66.9337 74.2086 67.5477 74.4294 67.9522 74.5431C68.3567 74.6569 69.1601 74.8922 69.7373 75.0672C72.5131 75.9047 79.1634 75.8891 80.6989 75.0405C80.9519 74.9011 81.3954 74.7873 81.6851 74.7873C81.9737 74.7873 82.269 74.6926 82.3414 74.5766C82.4127 74.4617 82.6779 74.3636 82.9309 74.3602C83.1838 74.3569 83.575 74.2142 83.799 74.0447C84.0229 73.8752 84.3773 73.7358 84.5868 73.7358C84.7952 73.7358 84.9668 73.6421 84.9668 73.5261C84.9668 73.4101 85.1105 73.3154 85.2866 73.3154C85.6287 73.3154 88.3844 71.6549 88.5025 71.3784C88.5404 71.2881 88.683 71.2133 88.8179 71.2133C89.2714 71.2133 93.2997 66.9201 94.2401 65.4336C95.9027 62.8086 97.3591 59.3483 97.3591 58.0291C97.3591 57.6633 97.4538 57.3065 97.5697 57.2351C97.6912 57.1593 97.7792 56.0074 97.7792 54.4919V51.8791L86.8043 51.8245L75.8293 51.7698L75.8572 51.1387C75.8728 50.7919 76.0466 49.941 76.2427 49.2474C76.4389 48.5538 76.6428 47.655 76.6974 47.2502C76.9671 45.2218 77.298 44.9999 78.4023 46.105C78.8146 46.5164 79.4219 46.9079 79.7529 46.9736C80.0838 47.0406 80.4047 47.1766 80.4671 47.2781C80.6243 47.5323 83.6519 47.5078 83.8112 47.2502C83.8825 47.1353 84.1477 47.0383 84.4018 47.035C84.8654 47.0305 86.7096 45.2853 87.2244 44.3631C88.0434 42.8967 87.4272 39.6271 86.0499 38.1317C84.9021 36.8872 80.9641 35.9082 80.4504 36.74C80.3791 36.856 80.1785 36.9508 80.0036 36.9508C79.8297 36.9508 79.364 37.1973 78.9684 37.4995C77.7159 38.4551 77.5487 38.1329 77.1799 34.047C77.0785 32.9263 76.9425 31.5848 76.8768 31.0651C76.7531 30.0749 75.8706 27.0194 75.3803 25.8831C75.2231 25.5184 75.0939 25.1148 75.0939 24.9865C75.0939 24.8583 75.0081 24.5884 74.9033 24.3877C74.7975 24.187 74.4543 23.4554 74.14 22.7618C73.8269 22.0682 73.4748 21.2943 73.3589 21.0412C72.8697 19.9762 73.1594 19.877 76.3018 20.0353C77.8908 20.1156 79.6158 20.2717 80.1351 20.3821ZM47.6827 21.9924C46.8625 22.2912 46.107 22.7262 46.107 22.9001C46.107 22.9971 45.9176 23.0774 45.6869 23.0774C45.4563 23.0774 45.2668 23.1599 45.2668 23.2625C45.2668 23.3651 45.1019 23.5034 44.8991 23.5714C44.5425 23.6919 43.7982 24.1256 43.5864 24.3386C43.4137 24.5104 42.6894 24.933 41.906 25.3188C41.5015 25.5173 40.8786 25.8987 40.5209 26.1652C40.1632 26.4317 39.8022 26.6503 39.7186 26.6503C38.5998 26.6503 38.0672 28.8661 38.9486 29.853L39.5615 30.5388H46.2976H53.0348L53.5618 29.9701C54.138 29.3489 54.2627 28.2472 53.8192 27.7019C53.1651 26.8945 52.7428 26.754 50.6613 26.6503C48.3836 26.5366 48.0259 26.3269 49.1135 25.7404C51.5984 24.4011 50.3125 21.0345 47.6827 21.9924ZM17.4155 35.3004C16.5642 35.7141 16.1987 37.0155 16.4583 38.7083C16.5853 39.5335 16.7257 40.4925 16.7703 40.8393C16.9363 42.1262 17.411 43.7632 18.0362 45.2084C18.2256 45.6455 18.3805 46.1418 18.3805 46.3113C18.3805 46.4808 18.4752 46.6201 18.59 46.6201C18.7059 46.6201 18.8006 46.7751 18.8006 46.9636C18.8006 47.9583 22.7887 52.8627 25.1322 54.7495C26.4638 55.8222 28.2367 56.8281 30.1433 57.5942C30.4319 57.7102 30.9523 57.9254 31.2988 58.0726C35.5923 59.8992 41.7746 59.8546 46.4224 57.9644C46.7689 57.8239 47.2414 57.6377 47.4721 57.5518C48.1095 57.3132 50.3849 56.217 50.6234 56.0319C50.7382 55.9427 51.3165 55.5156 51.906 55.0807C53.7078 53.757 55.6668 51.8189 56.7143 50.3257C56.946 49.9957 57.2291 49.6154 57.345 49.4782C57.8876 48.8382 59.7608 45.1147 59.7608 44.6754C59.7608 44.5114 59.8277 44.3096 59.9101 44.2271C60.3425 43.7944 60.9866 40.5661 61.1559 37.9801C61.2596 36.4089 61.2496 36.3709 60.5999 35.7208C59.4477 34.5678 57.4497 35.1577 57.4497 36.6508C57.4497 37.4537 56.8279 41.3634 56.6173 41.8897C56.5248 42.1217 56.2763 42.8543 56.0657 43.519C55.8551 44.1836 55.6077 44.7278 55.5164 44.7278C55.4239 44.7278 55.3492 44.8772 55.3492 45.059C55.3492 46.4852 49.3564 52.9262 48.0292 52.9262C47.9156 52.9262 47.7908 52.9965 47.7529 53.0835C47.7139 53.1704 47.3038 53.4169 46.8425 53.6321C46.38 53.8473 45.8485 54.1016 45.6602 54.1964C45.4719 54.2912 44.9749 54.4328 44.5548 54.512C44.1358 54.5911 43.7402 54.7394 43.6767 54.842C43.6132 54.9446 43.1474 55.0283 42.6415 55.0283C42.1345 55.0283 41.662 55.123 41.5907 55.2379C41.5149 55.3606 40.3326 55.4487 38.7547 55.4487C37.178 55.4487 35.9957 55.3606 35.9199 55.2379C35.8486 55.123 35.3761 55.0283 34.8691 55.0283C34.3632 55.0283 33.8974 54.9446 33.8339 54.842C33.7704 54.7394 33.3748 54.5911 32.9558 54.512C32.2248 54.3748 32.041 54.3079 31.0882 53.8328C28.4718 52.5292 24.0513 48.9564 24.0513 48.1457C24.0513 48.0431 23.8864 47.7721 23.6847 47.5413C23.123 46.9012 22.8422 46.425 22.1491 44.9385C21.7992 44.1869 21.4226 43.4074 21.3123 43.2067C21.2008 43.006 21.1106 42.6023 21.1106 42.3102C21.1106 42.018 21.0203 41.6154 20.9089 41.4147C20.7975 41.214 20.5612 39.9148 20.384 38.5265C19.9762 35.3472 19.1561 34.4551 17.4155 35.3004ZM93.1882 56.2895C93.147 56.4623 93.0668 56.9831 93.0088 57.4459C92.8985 58.3257 92.4628 59.8066 92.1296 60.4378C92.0215 60.6419 91.7686 61.1872 91.5669 61.6499C91.1579 62.5889 90.1974 64.1345 89.9556 64.2415C89.8687 64.2805 89.7973 64.4456 89.7973 64.6095C89.7973 64.7734 89.7271 64.9084 89.6402 64.9084C89.5533 64.9084 89.2937 65.1972 89.063 65.5507C88.8312 65.9031 87.981 66.7305 87.172 67.3895C86.363 68.0475 85.6699 68.6574 85.632 68.7433C85.593 68.8303 85.4682 68.9017 85.3557 68.9017C85.242 68.9017 84.8386 69.1381 84.4597 69.4269C84.0809 69.7157 83.6151 69.9521 83.4234 69.9521C83.2329 69.9521 83.0758 70.0391 83.0758 70.1461C83.0758 70.2521 82.7938 70.4015 82.4484 70.4773C82.103 70.5532 81.7664 70.7026 81.7007 70.8097C81.6349 70.9167 81.3497 71.0037 81.0678 71.0037C80.7858 71.0037 80.5552 71.0795 80.5552 71.1721C80.5552 72.2415 70.368 72.2292 69.2972 71.1576C69.2125 71.0728 68.9684 71.0037 68.7545 71.0037C68.5417 71.0037 68.2029 70.9156 68.0023 70.8063C67.8018 70.6981 67.3538 70.4751 67.0072 70.3101C63.9139 68.837 63.8738 68.7043 65.9119 66.716C66.7543 65.8953 67.8174 64.75 68.2753 64.1724C68.7333 63.5947 69.2259 62.9959 69.3707 62.8431C69.5145 62.6904 69.6326 62.4997 69.6326 62.4205C69.6326 62.3402 69.9613 61.8986 70.3636 61.4369C70.7658 60.9753 71.0968 60.4802 71.099 60.3352C71.1013 60.1913 71.1982 60.0731 71.313 60.0731C71.4289 60.0731 71.5236 59.9315 71.5236 59.7575C71.5236 59.5847 71.6016 59.442 71.6963 59.442C71.791 59.442 72.0785 59.0405 72.3337 58.5487C72.8875 57.486 73.2642 56.8537 73.4291 56.7099C73.4948 56.6519 73.6107 56.4378 73.6854 56.2348C73.8793 55.7085 93.3141 55.7631 93.1882 56.2895Z" fill="#30BBC4"/>
</svg>
